#!OML:ASF F:\VICON\USERDATA\INSTALL\rory3\rory3.ASF
:FULLY-SPECIFIED
:DEGREES
1
root -0.42998099999999956 18.1925 -35.88879999999997 7.925019999999995 -6.283879999999993 1.6473800000000023
lfemur 15.857400000000041 -4.321449999999994 -31.267499999999984
ltibia 33.785700000000034
lfoot 29.740899999999957 -23.224900000000016
ltoes -13.2451
rfemur -40.99520000000002 3.873420000000001 22.49050000000001
rtibia 26.42980000000003
rfoot -1.582420000000012 -2.1479399999999984
rtoes -20.592899999999982
lowerback 13.740499999999999 -0.9074589999999987 -3.2893900000000067
upperback -1.1525700000000003 -1.637410000000005 1.35917
thorax -8.8411 -0.5939209999999999 3.668159999999998
lowerneck -18.2886 -1.5193099999999986 -1.8711399999999998
upperneck 13.183199999999998 -1.7164100000000007 0.8344369999999968
head 7.05351 -0.8419730000000001 0.3827290000000003
lclavicle 5.5013699999999924e-14 2.3854199999999977e-15
lhumerus -41.1733 -13.963400000000002 94.3249
lradius 122.453
lwrist 37.4124
lhand -24.880699999999987 -0.5495270000000005
lfingers nan
lthumb 1.626759999999991 29.424
rclavicle 5.5013699999999924e-14 2.3854199999999977e-15
rhumerus -67.26169999999996 5.14736000000001 -90.97460000000001
rradius 105.258
rwrist -13.4593
rhand -21.746100000000002 41.11039999999999
rfingers nan
rthumb 4.653909999999999 11.1815
2
root -0.41674499999999964 18.1125 -34.266300000000044 7.157369999999994 -4.5311700000000075 1.6125799999999986
lfemur 13.149300000000025 -5.139019999999993 -30.245099999999987
ltibia 45.80840000000002
lfoot 31.863599999999984 -23.821300000000036
ltoes -6.962700000000002
rfemur -39.77869999999997 1.4156300000000002 23.918800000000008
rtibia 24.290000000000077
rfoot -1.4132599999999909 -4.330079999999998
rtoes -23.0
lowerback 13.9002 -1.373750000000001 -1.9559999999999915
upperback -0.18556499999999854 -2.0604599999999986 1.0163199999999992
thorax -7.902990000000002 -0.8984849999999982 2.6106199999999995
lowerneck -20.5251 -2.1090500000000034 -1.2690099999999995
upperneck 13.256599999999999 -2.6216899999999925 0.7285770000000027
head 7.45289 -1.2452900000000007 0.12683800000000056
lclavicle 3.1308599999999887e-15 7.553819999999997e-15
lhumerus -40.3959 -14.996399999999996 94.0095
lradius 118.98400000000001
lwrist 38.0013
lhand -26.520000000000003 -0.8430449999999987
lfingers nan
lthumb 0.043507299999991034 29.1367
rclavicle 3.1308599999999887e-15 7.553819999999997e-15
rhumerus -63.50360000000001 2.399759999999988 -90.09969999999998
rradius 103.789
rwrist -13.7532
rhand -18.9557 40.09729999999999
rfingers nan
rthumb 7.347930000000001 10.2449
3
root -0.4083409999999999 17.9014 -32.68960000000004 6.040560000000005 -5.972120000000003 0.2282350000000033
lfemur 9.258720000000043 -2.296770000000003 -27.688600000000008
ltibia 58.8023
lfoot 37.840100000000085 -20.875599999999988
ltoes -2.5781200000000117
rfemur -38.6342 -0.09525459999999786 27.5053
rtibia 27.628400000000042
rfoot 0.39318500000000345 -2.3683299999999923
rtoes -21.232400000000023
lowerback 14.2358 -1.0305800000000036 -1.1496899999999979
upperback 0.2709589999999976 -1.4285299999999959 1.6272200000000003
thorax -7.639749999999998 -0.6194989999999982 2.678820000000002
lowerneck -19.0264 -1.8892599999999997 -1.9051500000000008
upperneck 12.0288 -2.2164800000000033 1.0306799999999972
head 6.80876 -1.062020000000001 0.3941910000000001
lclavicle 2.981770000000009e-15 -8.34895999999998e-15
lhumerus -41.20990000000002 -13.0686 94.4097
lradius 114.392
lwrist 37.553799999999995
lhand -26.1795 0.35571600000000025
lfingers nan
lthumb 0.3723489999999954 30.3351
rclavicle 2.981770000000009e-15 -8.34895999999998e-15
rhumerus -60.89350000000003 2.4320099999999947 -89.7563
rradius 102.33199999999997
rwrist -12.8996
rhand -19.5001 40.5248
rfingers nan
rthumb 6.82238 10.654699999999997
4
root -0.4045600000000007 17.5801 -31.120200000000033 4.656140000000001 -7.350199999999978 -0.8423059999999999
lfemur 4.3923299999999585 1.6039299999999974 -24.370799999999996
ltibia 72.22459999999997
lfoot 39.048999999999936 -19.74490000000001
ltoes 5.145119999999979
rfemur -38.20810000000003 -0.1043409999999998 29.3588
rtibia 36.80659999999996
rfoot -1.8275900000000047 5.252890000000016
rtoes 6.677630000000002
lowerback 16.290199999999995 -0.503802000000001 -0.3570599999999986
upperback 0.027805799999997993 -0.5617450000000018 1.8967500000000004
thorax -9.11278 -0.20628500000000066 2.385930000000001
lowerneck -18.7014 -2.0349099999999987 -2.4822800000000003
upperneck 13.280300000000004 -2.375759999999997 1.58023
head 7.180820000000001 -1.117269999999997 0.647125
lclavicle -2.8823799999999954e-15 1.03368e-14
lhumerus -42.831700000000005 -11.6935 95.0915
lradius 109.251
lwrist 36.32970000000002
lhand -25.928699999999996 -0.23478500000000052
lfingers nan
lthumb 0.614605000000009 29.7441
rclavicle -2.8823799999999954e-15 1.03368e-14
rhumerus -58.62580000000001 2.521859999999993 -90.2704
rradius 100.773
rwrist -12.532399999999997
rhand -20.850799999999996 41.474900000000005
rfingers nan
rthumb 5.518369999999999 11.566700000000004
